<svg width="98" height="18" viewBox="0 0 98 18" fill="none" xmlns="http://www.w3.org/2000/svg">
<path d="M9.13086 0L12.2467 4.7114L17.6904 6.21885L14.1724 10.6381L14.4209 16.2812L9.13086 14.301L3.84079 16.2812L4.08931 10.6381L0.571351 6.21885L6.01501 4.7114L9.13086 0Z" fill="#E60000"/>
<path d="M29.1309 0L32.2467 4.7114L37.6904 6.21885L34.1724 10.6381L34.4209 16.2812L29.1309 14.301L23.8408 16.2812L24.0893 10.6381L20.5714 6.21885L26.015 4.7114L29.1309 0Z" fill="#E60000"/>
<path d="M49.1309 0L52.2467 4.7114L57.6904 6.21885L54.1724 10.6381L54.4209 16.2812L49.1309 14.301L43.8408 16.2812L44.0893 10.6381L40.5714 6.21885L46.015 4.7114L49.1309 0Z" fill="#E60000"/>
<path d="M69.1309 0L72.2467 4.7114L77.6904 6.21885L74.1724 10.6381L74.4209 16.2812L69.1309 14.301L63.8408 16.2812L64.0893 10.6381L60.5714 6.21885L66.015 4.7114L69.1309 0Z" fill="#E60000"/>
<path d="M83.4003 16.2812L88.6904 14.301V0L85.5745 4.7114L80.1309 6.21885L83.6488 10.6381L83.4003 16.2812Z" fill="#E60000"/>
<path d="M91.8063 4.7114L88.6904 0V14.301L93.9805 16.2812L93.732 10.6381L97.2499 6.21885L91.8063 4.7114Z" fill="#E60000"/>
</svg>
